<?xml version="1.0" standalone="no"?><svg xmlns="http://www.w3.org/2000/svg" viewBox="0 0 1440 320"><path fill="#049660" fill-opacity="1" d="M0,160L40,154.7C80,149,160,139,240,154.7C320,171,400,213,480,202.7C560,192,640,128,720,112C800,96,880,128,960,128C1040,128,1120,96,1200,85.3C1280,75,1360,85,1400,90.7L1440,96L1440,320L1400,320C1360,320,1280,320,1200,320C1120,320,1040,320,960,320C880,320,800,320,720,320C640,320,560,320,480,320C400,320,320,320,240,320C160,320,80,320,40,320L0,320Z"></path></svg>